<svg xmlns="http://www.w3.org/2000/svg" viewBox="0 0 100 100">
  <rect width="100" height="100" rx="18" fill="#f5f0e8"/>
  <!-- VHS mascot: original 230x108, scaled to fit 84x39.4, centered at 50,50 -->
  <!-- scale = 84/230 = 0.365, height = 108*0.365 = 39.5 -->
  <!-- x offset = (100-84)/2 = 8, y offset = (100-39.5)/2 = 30.25 -->
  <g transform="translate(8, 30) scale(0.3652)">
    <rect x="0" y="0" width="230" height="108" rx="10" fill="#2c2014"/>
    <path d="M10,0 Q0,0 0,10 L0,25 L230,25 L230,10 Q230,0 220,0 Z" fill="#ff8c50"/>
    <rect x="63" y="0" width="104" height="11" rx="3" fill="#cc6030"/>
    <rect x="13" y="25" width="204" height="56" rx="5" fill="#080402"/>
    <ellipse cx="49" cy="53" rx="27" ry="26" fill="#2a1e0c"/>
    <circle cx="49" cy="53" r="20" fill="#080402"/>
    <circle cx="47" cy="52" r="2.5" fill="#888888"/>
    <circle cx="43" cy="47" r="6.5" fill="#ffffff"/>
    <ellipse cx="181" cy="53" rx="27" ry="26" fill="#2a1e0c"/>
    <circle cx="181" cy="53" r="20" fill="#080402"/>
    <circle cx="179" cy="52" r="2.5" fill="#888888"/>
    <circle cx="175" cy="47" r="6.5" fill="#ffffff"/>
    <rect x="77" y="28" width="76" height="50" rx="4" fill="#f0e8d0"/>
    <line x1="85" y1="42" x2="145" y2="42" stroke="#b09870" stroke-width=".85" opacity=".5"/>
    <line x1="85" y1="50" x2="145" y2="50" stroke="#b09870" stroke-width=".85" opacity=".5"/>
    <line x1="85" y1="58" x2="145" y2="58" stroke="#b09870" stroke-width=".85" opacity=".5"/>
    <line x1="85" y1="66" x2="145" y2="66" stroke="#b09870" stroke-width=".85" opacity=".5"/>
    <path d="M87,87 Q115,101 143,94" fill="none" stroke="#f0e8d0" stroke-width="2.5" stroke-linecap="round"/>
  </g>
</svg>